<svg width="9" height="12" viewBox="0 0 9 12" fill="none" xmlns="http://www.w3.org/2000/svg">
<path opacity="0.5" d="M1.70324 11.7C1.58873 11.7005 1.47474 11.6812 1.36759 11.643C1.26012 11.6046 1.16078 11.5476 1.07583 11.4739C0.990571 11.4 0.9212 11.3106 0.873241 11.2101C0.825225 11.1093 0.8 11.0001 0.8 10.889C0.8 10.7779 0.825225 10.6687 0.87324 10.568C0.921141 10.4675 0.990396 10.3782 1.07551 10.3044C1.07562 10.3043 1.07572 10.3042 1.07583 10.3041L6.00671 6.00124L1.07532 1.69795L1.07522 1.69786C0.903763 1.54804 0.801194 1.33859 0.801194 1.11347C0.801194 0.888352 0.903763 0.678902 1.07522 0.529079C1.24581 0.380007 1.47206 0.3 1.70324 0.3C1.93442 0.3 2.16067 0.380007 2.33127 0.529079L7.92417 5.41632C7.92429 5.41643 7.92442 5.41653 7.92454 5.41664C8.00963 5.49047 8.07887 5.57976 8.12676 5.68021C8.17477 5.78091 8.2 5.89012 8.2 6.00124C8.2 6.11237 8.17477 6.22157 8.12676 6.32228C8.07887 6.42273 8.00963 6.51202 7.92454 6.58585C7.92441 6.58596 7.92429 6.58606 7.92417 6.58617L2.33127 11.4734L2.33066 11.4739C2.24571 11.5476 2.14637 11.6046 2.0389 11.643C1.93174 11.6812 1.81776 11.7005 1.70324 11.7ZM1.70324 11.7C1.70358 11.7 1.70392 11.7 1.70425 11.7L1.70324 11.5L1.70223 11.7C1.70257 11.7 1.70291 11.7 1.70324 11.7Z" fill="white" stroke="white" stroke-width="0.4"/>
</svg>
