<svg width="13" height="8" viewBox="0 0 13 8" fill="none" xmlns="http://www.w3.org/2000/svg">
<path opacity="0.5" d="M7.05525 7.6406L12.0561 1.64032C12.2248 1.43634 12.3059 1.17382 12.2814 0.910227C12.257 0.646638 12.1291 0.403472 11.9257 0.233977C11.7224 0.0644832 11.4601 -0.0175252 11.1964 0.0059109C10.9327 0.029347 10.689 0.156317 10.5187 0.359018L6.28653 5.43737L2.05434 0.359018C1.88429 0.155536 1.64042 0.0278641 1.3763 0.0040471C1.11217 -0.0197699 0.849396 0.0622161 0.645686 0.231995C0.441977 0.401774 0.313997 0.645461 0.289862 0.909525C0.265725 1.17359 0.347406 1.43644 0.516962 1.64032L5.51789 7.6406C5.6119 7.75311 5.72946 7.84361 5.86228 7.90571C5.9951 7.96781 6.13994 8 6.28657 8C6.43319 8 6.57803 7.96781 6.71085 7.90571C6.84367 7.84361 6.96124 7.75311 7.05525 7.6406Z" fill="white"/>
</svg>
