<svg width="19" height="16" viewBox="0 0 19 16" fill="none" xmlns="http://www.w3.org/2000/svg">
<path d="M9.29307 12.9884L9.2839 12.95H9.24444H1.01587C0.722239 12.95 0.481533 12.8538 0.314441 12.6894C0.147419 12.525 0.05 12.2884 0.05 12C0.05 11.7116 0.147419 11.475 0.314441 11.3106C0.481533 11.1462 0.722239 11.05 1.01587 11.05H9.24444H9.28169L9.29235 11.0143C9.79456 9.3335 11.3003 8.05 13.2063 8.05C15.1144 8.05 16.7189 9.33512 17.1196 11.0116L17.1288 11.05H17.1683H17.2698C17.5635 11.05 17.8042 11.1462 17.9713 11.3106C18.1383 11.475 18.2357 11.7116 18.2357 12C18.2357 12.2884 18.1383 12.525 17.9713 12.6894C17.8042 12.8538 17.5635 12.95 17.2698 12.95H17.1683H17.131L17.1203 12.9857C16.6181 14.6665 15.1124 15.95 13.2063 15.95C11.2983 15.95 9.69381 14.6649 9.29307 12.9884ZM15.2881 12C15.2881 10.8716 14.3507 9.95 13.2063 9.95C12.062 9.95 11.1246 10.8716 11.1246 12C11.1246 13.1284 12.062 14.05 13.2063 14.05C14.3507 14.05 15.2881 13.1284 15.2881 12Z" fill="#989B9E" stroke="#1A212D" stroke-width="0.1"/>
<path d="M1.16609 4.98838L1.15692 4.95H1.11746H1.01587C0.722239 4.95 0.481533 4.85385 0.314441 4.68937C0.147419 4.52496 0.05 4.2884 0.05 4C0.05 3.7116 0.147419 3.47504 0.314441 3.31063C0.481533 3.14615 0.722239 3.05 1.01587 3.05H1.11746H1.1547L1.16537 3.01431C1.66757 1.3335 3.17332 0.05 5.07936 0.05C6.98743 0.05 8.59191 1.33512 8.99264 3.01162L9.00181 3.05H9.04127H17.2698C17.5635 3.05 17.8042 3.14615 17.9713 3.31063C18.1383 3.47504 18.2357 3.7116 18.2357 4C18.2357 4.2884 18.1383 4.52496 17.9713 4.68937C17.8042 4.85385 17.5635 4.95 17.2698 4.95H9.04127H9.00402L8.99336 4.98569C8.49116 6.6665 6.98541 7.95 5.07936 7.95C3.1713 7.95 1.56682 6.66488 1.16609 4.98838ZM7.16111 4C7.16111 2.87165 6.22369 1.95 5.07936 1.95C3.93504 1.95 2.99762 2.87165 2.99762 4C2.99762 5.12835 3.93504 6.05 5.07936 6.05C6.22369 6.05 7.16111 5.12835 7.16111 4Z" fill="#989B9E" stroke="#1A212D" stroke-width="0.1"/>
</svg>
