<svg width="13" height="12" viewBox="0 0 13 12" fill="none" xmlns="http://www.w3.org/2000/svg">
<path d="M5.92008 11.4684C6.00282 11.4688 6.0848 11.4527 6.16132 11.421C6.23801 11.3891 6.30767 11.3423 6.36633 11.2832C6.42517 11.224 6.47179 11.1535 6.50358 11.0761C6.53537 10.9986 6.55172 10.9155 6.55172 10.8317C6.55172 10.7478 6.53537 10.6648 6.50358 10.5873C6.47181 10.5099 6.42522 10.4395 6.36642 10.3802C6.36639 10.3802 6.36636 10.3802 6.36633 10.3802L2.67649 6.63784H11.8157C11.9673 6.63784 12.1081 6.56541 12.2088 6.44465C12.3089 6.32442 12.3629 6.16468 12.3629 6.0011C12.3629 5.83753 12.3089 5.67779 12.2088 5.55756C12.1081 5.4368 11.9673 5.36437 11.8157 5.36437H2.6765L6.36658 1.62181L6.36662 1.62177C6.42511 1.56237 6.47143 1.49194 6.50301 1.41453C6.53458 1.33712 6.55081 1.25421 6.55081 1.17052C6.55081 1.08683 6.53458 1.00392 6.50301 0.926511C6.47143 0.849104 6.42511 0.778671 6.36662 0.719274C6.30812 0.659872 6.23859 0.61267 6.16196 0.580437C6.08532 0.548203 6.00313 0.531592 5.92008 0.531592C5.83704 0.531592 5.75485 0.548203 5.67821 0.580437C5.60158 0.61267 5.53205 0.659872 5.47355 0.719273L0.827843 5.43674C0.776194 5.46813 0.729146 5.50892 0.688617 5.55756C0.624144 5.63493 0.578803 5.72867 0.554671 5.82926C0.539223 5.8851 0.531348 5.94291 0.531348 6.00111C0.531348 6.05931 0.539224 6.11712 0.554674 6.17296C0.578807 6.27355 0.624147 6.36728 0.688617 6.44465C0.729145 6.49328 0.776191 6.53408 0.827838 6.56546L5.47355 11.2829L5.47384 11.2832C5.5325 11.3423 5.60216 11.3891 5.67885 11.421C5.75537 11.4527 5.83735 11.4688 5.92008 11.4684ZM5.92008 11.4684C5.91989 11.4684 5.91969 11.4684 5.9195 11.4684L5.92008 11.3684L5.92067 11.4684C5.92048 11.4684 5.92028 11.4684 5.92008 11.4684Z" fill="white" stroke="white" stroke-width="0.2"/>
</svg>
