<svg width="14" height="14" viewBox="0 0 14 14" fill="none" xmlns="http://www.w3.org/2000/svg">
<path d="M0.564054 4.7056H3.27102V13.4172H0.564054V4.7056ZM1.91856 0.375275C2.78421 0.375275 3.48693 1.07799 3.48693 1.94568C3.48693 2.81338 2.78421 3.51609 1.91856 3.51609C1.05086 3.51609 0.348149 2.81338 0.348149 1.94568C0.346112 1.08002 1.04882 0.375275 1.91856 0.375275Z" fill="white"/>
<path d="M4.96924 4.70561H7.56621V5.89513H7.60288C7.9634 5.21075 8.84535 4.48767 10.1652 4.48767C12.9068 4.48767 13.414 6.29231 13.414 8.63672V13.4172H10.707V9.1826C10.707 8.17028 10.6887 6.87282 9.29957 6.87282C7.89007 6.87282 7.67417 7.97271 7.67417 9.10927V13.4192H4.96924V4.70561Z" fill="white"/>
</svg>
