<svg width="80" height="80" viewBox="0 0 80 80" fill="none" xmlns="http://www.w3.org/2000/svg">
<circle cx="40" cy="40" r="40" fill="#FEFEFF" fill-opacity="0.1"/>
<path d="M40 22C30.0578 22 22 30.0578 22 40C22 49.9422 30.0578 58 40 58C49.9422 58 58 49.9422 58 40C58 30.0578 49.9422 22 40 22ZM40 31C42.7963 31 45.0625 33.2669 45.0625 36.0625C45.0625 38.8581 42.7984 41.125 40 41.125C37.2044 41.125 34.9375 38.8581 34.9375 36.0625C34.9375 33.2669 37.2016 31 40 31ZM40 53.5C36.2784 53.5 32.9055 51.9862 30.4586 49.5421C31.5977 46.6023 34.4102 44.5 37.75 44.5H42.25C45.5927 44.5 48.4052 46.6009 49.5414 49.5421C47.0945 51.9883 43.7195 53.5 40 53.5Z" fill="url(#paint0_linear_45_2423)"/>
<defs>
<linearGradient id="paint0_linear_45_2423" x1="14.5364" y1="14.591" x2="57.2187" y2="54.032" gradientUnits="userSpaceOnUse">
<stop stop-color="#FEFEFF"/>
<stop offset="1" stop-color="#E3FFF7"/>
</linearGradient>
</defs>
</svg>
