<svg width="18" height="18" viewBox="0 0 18 18" fill="none" xmlns="http://www.w3.org/2000/svg">
<path d="M7.47273 3.36085C7.97333 3.24449 8.48586 3.18632 9 3.18752C14.0909 3.18752 17 8.96529 17 8.96529C16.5585 9.78545 16.032 10.5576 15.4291 11.2692M10.5418 10.4964C10.3421 10.7093 10.1012 10.88 9.83357 10.9984C9.56593 11.1168 9.27702 11.1805 8.98407 11.1857C8.69111 11.1908 8.40012 11.1373 8.12844 11.0283C7.85677 10.9193 7.60998 10.7571 7.4028 10.5514C7.19562 10.3457 7.03229 10.1006 6.92255 9.83079C6.81282 9.561 6.75893 9.27203 6.7641 8.98111C6.76927 8.69019 6.83339 8.40329 6.95264 8.13751C7.07189 7.87174 7.24382 7.63254 7.45818 7.43418M13.32 13.2553C12.0768 14.1963 10.563 14.7177 9 14.7431C3.90909 14.7431 1 8.96529 1 8.96529C1.90465 7.2911 3.15937 5.8284 4.68 4.67529L13.32 13.2553Z" stroke="white" stroke-opacity="0.7" stroke-width="1.8" stroke-linecap="round" stroke-linejoin="round"/>
<path d="M1 1L17 17" stroke="white" stroke-opacity="0.7" stroke-width="1.8" stroke-linecap="round" stroke-linejoin="round"/>
</svg>
