<svg width="18" height="10" viewBox="0 0 18 10" fill="none" xmlns="http://www.w3.org/2000/svg">
<path d="M12.0023 2C11.4492 2 11.0023 1.55313 11.0023 1C11.0023 0.446875 11.4492 0 12.0023 0H17.0023C17.5555 0 18.0023 0.446875 18.0023 1V6C18.0023 6.55312 17.5555 7 17.0023 7C16.4492 7 16.0023 6.55312 16.0023 6V3.41563L10.7086 8.70625C10.318 9.09688 9.68359 9.09688 9.29297 8.70625L6.00234 5.41562L1.70859 9.70625C1.31797 10.0969 0.683594 10.0969 0.292969 9.70625C-0.0976562 9.31563 -0.0976562 8.68125 0.292969 8.29062L5.29297 3.29063C5.68359 2.9 6.31797 2.9 6.70859 3.29063L10.0023 6.58438L14.5867 2H12.0023Z" fill="#0DAB7A"/>
</svg>
