<svg width="20" height="20" viewBox="0 0 20 20" fill="none" xmlns="http://www.w3.org/2000/svg">
<path d="M12.5509 8.70848C12.218 8.70848 11.8988 8.57625 11.6634 8.34087C11.428 8.1055 11.2958 7.78626 11.2958 7.45339V1.17794C11.2958 0.485132 11.8606 -0.0859345 12.5471 0.0107074C14.4262 0.280771 16.1673 1.15223 17.5097 2.49461C18.8521 3.83698 19.7235 5.57806 19.9936 7.45716C20.0915 8.14369 19.5192 8.70848 18.8264 8.70848H12.5509Z" fill="white"/>
<path d="M7.53431 2.52094C8.22084 2.42555 8.78563 2.99661 8.78563 3.68817V9.96362C8.78563 10.2965 8.91786 10.6157 9.15324 10.8511C9.38861 11.0865 9.70785 11.2187 10.0407 11.2187H16.3162C17.009 11.2187 17.5813 11.7835 17.4834 12.47C17.1657 14.6681 16.0275 16.6643 14.2977 18.0571C12.5679 19.45 10.3748 20.1361 8.15959 19.9776C5.94439 19.819 3.87139 18.8275 2.35757 17.2025C0.843752 15.5775 0.00141784 13.4396 1.67056e-07 11.2187C-0.000411802 9.10512 0.761143 7.06222 2.145 5.46466C3.52886 3.8671 5.44226 2.82197 7.53431 2.52094Z" fill="white"/>
</svg>
