<svg width="21" height="18" viewBox="0 0 21 18" fill="none" xmlns="http://www.w3.org/2000/svg">
<g opacity="0.6">
<path d="M13.5906 12.3327L10.2343 8.99896L6.87793 12.3327" stroke="white" stroke-width="2" stroke-linecap="round" stroke-linejoin="round"/>
<path d="M10.2345 8.99896V16.5" stroke="white" stroke-width="2" stroke-linecap="round" stroke-linejoin="round"/>
<path d="M17.2743 14.3247C18.0927 13.8815 18.7392 13.1803 19.1118 12.3316C19.4844 11.4829 19.5618 10.5352 19.3319 9.63796C19.102 8.74073 18.5778 7.94509 17.8421 7.37662C17.1064 6.80816 16.201 6.49924 15.2689 6.49863H14.2116C13.9577 5.52287 13.4843 4.61699 12.8271 3.8491C12.1699 3.08121 11.346 2.47129 10.4174 2.0652C9.48874 1.65911 8.47949 1.46741 7.46551 1.50452C6.45154 1.54163 5.45922 1.80658 4.56317 2.27945C3.66713 2.75231 2.89066 3.4208 2.29215 4.23464C1.69364 5.04848 1.28866 5.98651 1.10766 6.97819C0.926665 7.96987 0.974355 8.98941 1.24715 9.96015C1.51994 10.9309 2.01074 11.8276 2.68264 12.5828" stroke="white" stroke-width="2" stroke-linecap="round" stroke-linejoin="round"/>
<path d="M13.5906 12.3327L10.2343 8.99896L6.87793 12.3327" stroke="white" stroke-width="2" stroke-linecap="round" stroke-linejoin="round"/>
</g>
</svg>
