<svg width="20" height="20" viewBox="0 0 20 20" fill="none" xmlns="http://www.w3.org/2000/svg">
<path d="M10 0C4.47712 0 0 4.47712 0 10C0 15.5229 4.47712 20 10 20C15.5229 20 20 15.5229 20 10C20 4.47712 15.5229 0 10 0ZM10.922 16.3597C10.6554 16.6208 10.3011 16.7513 9.85932 16.7513C9.4175 16.7513 9.06017 16.6208 8.78729 16.3597C8.52089 16.0987 8.38758 15.7681 8.38729 15.3678C8.38729 14.961 8.5236 14.6272 8.79619 14.3665C9.075 14.0996 9.42936 13.966 9.85932 13.9657C10.2893 13.9654 10.6406 14.099 10.9131 14.3665C11.1914 14.627 11.3306 14.9607 11.3309 15.3678C11.3309 15.7683 11.1946 16.099 10.922 16.3597ZM13.7475 8.24068C13.5175 8.69576 13.1148 9.20242 12.5394 9.76059L11.8034 10.4614C11.3432 10.9047 11.0798 11.4234 11.0131 12.0178C11.0035 12.1685 10.9368 12.3099 10.8266 12.4131C10.7164 12.5163 10.5709 12.5736 10.4199 12.5733H9.8517C9.18856 12.5733 8.63008 12.0314 8.73644 11.3767C8.77924 11.0914 8.85415 10.8117 8.95975 10.5432C9.16568 10.0398 9.54123 9.54547 10.0864 9.06017C10.6373 8.56864 11.0037 8.17119 11.1856 7.8678C11.363 7.5736 11.4572 7.23678 11.4581 6.89322C11.4581 5.8678 10.9856 5.35508 10.0407 5.35508C9.59267 5.35508 9.23233 5.49462 8.95975 5.77373C8.47712 6.26822 7.99068 6.91144 7.3 6.91144H7.24788C6.50975 6.91144 5.87966 6.2928 6.11059 5.59153C6.28513 5.05131 6.60064 4.56742 7.02458 4.18983C7.76356 3.53475 8.76894 3.20706 10.0407 3.20678C11.3251 3.20678 12.3215 3.51936 13.0297 4.14449C13.7387 4.76343 14.0931 5.64025 14.0928 6.775C14.0943 7.2839 13.976 7.78602 13.7475 8.24068Z" fill="url(#paint0_linear_45_3501)"/>
<defs>
<linearGradient id="paint0_linear_45_3501" x1="0.545454" y1="20" x2="23.8663" y2="13.1362" gradientUnits="userSpaceOnUse">
<stop stop-color="#85FFC4"/>
<stop offset="0.411458" stop-color="#5CC6FF"/>
<stop offset="0.854167" stop-color="#BC85FF"/>
</linearGradient>
</defs>
</svg>
