<svg width="17" height="20" viewBox="0 0 17 20" fill="none" xmlns="http://www.w3.org/2000/svg">
<path d="M10.3889 4.54545V0.918182C10.4456 0.963637 10.5022 1.01818 10.5494 1.06364L15.895 6.20909C15.9422 6.25455 15.9989 6.30909 16.0461 6.36364H12.2778C11.7773 6.3622 11.2977 6.17018 10.9438 5.82951C10.5899 5.48885 10.3904 5.02722 10.3889 4.54545Z" fill="url(#paint0_linear_45_3487)"/>
<path d="M16.9433 8.18182H12.2778C11.2758 8.18182 10.315 7.7987 9.60649 7.11675C8.89801 6.4348 8.5 5.50988 8.5 4.54545V0.0545454C8.29435 0.0183699 8.08572 0.000114241 7.87667 0H2.83333C2.08189 0 1.36122 0.287337 0.829864 0.7988C0.298511 1.31026 0 2.00396 0 2.72727V17.2727C0 17.996 0.298511 18.6897 0.829864 19.2012C1.36122 19.7127 2.08189 20 2.83333 20H14.1667C14.9181 20 15.6388 19.7127 16.1701 19.2012C16.7015 18.6897 17 17.996 17 17.2727V8.78182C16.9999 8.58059 16.9809 8.37977 16.9433 8.18182ZM3.77778 11.8182H7.55556C7.80604 11.8182 8.04626 11.914 8.22338 12.0844C8.4005 12.2549 8.5 12.4862 8.5 12.7273C8.5 12.9684 8.4005 13.1996 8.22338 13.3701C8.04626 13.5406 7.80604 13.6364 7.55556 13.6364H3.77778C3.5273 13.6364 3.28707 13.5406 3.10995 13.3701C2.93284 13.1996 2.83333 12.9684 2.83333 12.7273C2.83333 12.4862 2.93284 12.2549 3.10995 12.0844C3.28707 11.914 3.5273 11.8182 3.77778 11.8182ZM13.2222 17.2727H3.77778C3.5273 17.2727 3.28707 17.177 3.10995 17.0065C2.93284 16.836 2.83333 16.6047 2.83333 16.3636C2.83333 16.1225 2.93284 15.8913 3.10995 15.7208C3.28707 15.5503 3.5273 15.4545 3.77778 15.4545H13.2222C13.4727 15.4545 13.7129 15.5503 13.89 15.7208C14.0672 15.8913 14.1667 16.1225 14.1667 16.3636C14.1667 16.6047 14.0672 16.836 13.89 17.0065C13.7129 17.177 13.4727 17.2727 13.2222 17.2727Z" fill="url(#paint1_linear_45_3487)"/>
<defs>
<linearGradient id="paint0_linear_45_3487" x1="0.463636" y1="20" x2="20.7348" y2="14.9287" gradientUnits="userSpaceOnUse">
<stop stop-color="#85FFC4"/>
<stop offset="0.411458" stop-color="#5CC6FF"/>
<stop offset="0.854167" stop-color="#BC85FF"/>
</linearGradient>
<linearGradient id="paint1_linear_45_3487" x1="0.463636" y1="20" x2="20.7348" y2="14.9287" gradientUnits="userSpaceOnUse">
<stop stop-color="#85FFC4"/>
<stop offset="0.411458" stop-color="#5CC6FF"/>
<stop offset="0.854167" stop-color="#BC85FF"/>
</linearGradient>
</defs>
</svg>
