<svg width="16" height="16" viewBox="0 0 16 16" fill="none" xmlns="http://www.w3.org/2000/svg">
<mask id="path-1-inside-1_45_1648" fill="white">
<path d="M0.44728 0.44728C0.733759 0.160887 1.12226 0 1.52734 0C1.93242 0 2.32092 0.160887 2.6074 0.44728L8.00922 5.8491L13.411 0.44728C13.6992 0.169003 14.0851 0.015023 14.4856 0.0185037C14.8862 0.0219843 15.2693 0.182647 15.5526 0.465889C15.8358 0.74913 15.9965 1.13229 15.9999 1.53284C16.0034 1.93339 15.8494 2.31928 15.5712 2.6074L10.1693 8.00922L15.5712 13.411C15.8494 13.6992 16.0034 14.0851 15.9999 14.4856C15.9965 14.8862 15.8358 15.2693 15.5526 15.5526C15.2693 15.8358 14.8862 15.9965 14.4856 15.9999C14.0851 16.0034 13.6992 15.8494 13.411 15.5712L8.00922 10.1693L2.6074 15.5712C2.31928 15.8494 1.93339 16.0034 1.53284 15.9999C1.13229 15.9965 0.74913 15.8358 0.465889 15.5526C0.182647 15.2693 0.0219843 14.8862 0.0185037 14.4856C0.015023 14.0851 0.169003 13.6992 0.44728 13.411L5.8491 8.00922L0.44728 2.6074C0.160887 2.32092 0 1.93242 0 1.52734C0 1.12226 0.160887 0.733759 0.44728 0.44728Z"/>
</mask>
<path d="M0.44728 0.44728C0.733759 0.160887 1.12226 0 1.52734 0C1.93242 0 2.32092 0.160887 2.6074 0.44728L8.00922 5.8491L13.411 0.44728C13.6992 0.169003 14.0851 0.015023 14.4856 0.0185037C14.8862 0.0219843 15.2693 0.182647 15.5526 0.465889C15.8358 0.74913 15.9965 1.13229 15.9999 1.53284C16.0034 1.93339 15.8494 2.31928 15.5712 2.6074L10.1693 8.00922L15.5712 13.411C15.8494 13.6992 16.0034 14.0851 15.9999 14.4856C15.9965 14.8862 15.8358 15.2693 15.5526 15.5526C15.2693 15.8358 14.8862 15.9965 14.4856 15.9999C14.0851 16.0034 13.6992 15.8494 13.411 15.5712L8.00922 10.1693L2.6074 15.5712C2.31928 15.8494 1.93339 16.0034 1.53284 15.9999C1.13229 15.9965 0.74913 15.8358 0.465889 15.5526C0.182647 15.2693 0.0219843 14.8862 0.0185037 14.4856C0.015023 14.0851 0.169003 13.6992 0.44728 13.411L5.8491 8.00922L0.44728 2.6074C0.160887 2.32092 0 1.93242 0 1.52734C0 1.12226 0.160887 0.733759 0.44728 0.44728Z" fill="white"/>
<path d="M0.44728 0.44728L0.436233 0.436229L0.436229 0.436233L0.44728 0.44728ZM2.6074 0.44728L2.61845 0.436231L2.61845 0.436229L2.6074 0.44728ZM8.00922 5.8491L7.99817 5.86015L8.00922 5.8712L8.02027 5.86015L8.00922 5.8491ZM13.411 0.44728L13.4002 0.436039L13.4 0.436231L13.411 0.44728ZM15.9999 1.53284L15.9843 1.53297L15.9999 1.53284ZM15.5712 2.6074L15.5822 2.61845L15.5824 2.61825L15.5712 2.6074ZM10.1693 8.00922L10.1583 7.99817L10.1472 8.00922L10.1583 8.02027L10.1693 8.00922ZM15.5712 13.411L15.5824 13.4002L15.5822 13.4L15.5712 13.411ZM15.9999 14.4856L15.9843 14.4855L15.9999 14.4856ZM14.4856 15.9999L14.4855 15.9843L14.4856 15.9999ZM13.411 15.5712L13.4 15.5822L13.4002 15.5824L13.411 15.5712ZM8.00922 10.1693L8.02027 10.1583L8.00922 10.1472L7.99817 10.1583L8.00922 10.1693ZM2.6074 15.5712L2.61826 15.5824L2.61845 15.5822L2.6074 15.5712ZM1.53284 15.9999L1.53297 15.9843L1.53284 15.9999ZM0.44728 13.411L0.436229 13.4L0.436041 13.4002L0.44728 13.411ZM5.8491 8.00922L5.86015 8.02027L5.8712 8.00922L5.86015 7.99817L5.8491 8.00922ZM0.44728 2.6074L0.436229 2.61845L0.436231 2.61845L0.44728 2.6074ZM0.458326 0.45833C0.741876 0.174866 1.1264 0.015625 1.52734 0.015625V-0.015625C1.11811 -0.015625 0.725642 0.146907 0.436233 0.436229L0.458326 0.45833ZM1.52734 0.015625C1.92828 0.015625 2.3128 0.174866 2.59635 0.45833L2.61845 0.436229C2.32904 0.146907 1.93656 -0.015625 1.52734 -0.015625V0.015625ZM2.59635 0.458328L7.99817 5.86015L8.02027 5.83806L2.61845 0.436231L2.59635 0.458328ZM8.02027 5.86015L13.4221 0.458328L13.4 0.436231L7.99817 5.83806L8.02027 5.86015ZM13.4219 0.458518C13.7071 0.183088 14.089 0.030683 14.4855 0.0341281L14.4857 0.00287925C14.0811 -0.000637012 13.6913 0.154918 13.4002 0.436041L13.4219 0.458518ZM14.4855 0.0341281C14.8819 0.0375731 15.2612 0.196593 15.5415 0.476937L15.5636 0.45484C15.2775 0.168702 14.8904 0.00639551 14.4857 0.00287925L14.4855 0.0341281ZM15.5415 0.476937C15.8219 0.757282 15.9809 1.13652 15.9843 1.53297L16.0156 1.5327C16.012 1.12806 15.8497 0.740979 15.5636 0.45484L15.5415 0.476937ZM15.9843 1.53297C15.9878 1.92942 15.8354 2.31137 15.5599 2.59654L15.5824 2.61825C15.8635 2.32719 16.0191 1.93735 16.0156 1.5327L15.9843 1.53297ZM15.5601 2.59635L10.1583 7.99817L10.1804 8.02027L15.5822 2.61845L15.5601 2.59635ZM10.1583 8.02027L15.5601 13.4221L15.5822 13.4L10.1804 7.99817L10.1583 8.02027ZM15.5599 13.4219C15.8354 13.7071 15.9878 14.089 15.9843 14.4855L16.0156 14.4857C16.0191 14.0811 15.8635 13.6913 15.5824 13.4002L15.5599 13.4219ZM15.9843 14.4855C15.9809 14.8819 15.8219 15.2612 15.5415 15.5415L15.5636 15.5636C15.8497 15.2775 16.012 14.8904 16.0156 14.4857L15.9843 14.4855ZM15.5415 15.5415C15.2612 15.8219 14.8819 15.9809 14.4855 15.9843L14.4857 16.0156C14.8904 16.012 15.2775 15.8497 15.5636 15.5636L15.5415 15.5415ZM14.4855 15.9843C14.089 15.9878 13.7071 15.8354 13.4219 15.5599L13.4002 15.5824C13.6913 15.8635 14.0811 16.0191 14.4857 16.0156L14.4855 15.9843ZM13.4221 15.5601L8.02027 10.1583L7.99817 10.1804L13.4 15.5822L13.4221 15.5601ZM7.99817 10.1583L2.59635 15.5601L2.61845 15.5822L8.02027 10.1804L7.99817 10.1583ZM2.59654 15.5599C2.31137 15.8354 1.92942 15.9878 1.53297 15.9843L1.5327 16.0156C1.93735 16.0191 2.32719 15.8635 2.61825 15.5824L2.59654 15.5599ZM1.53297 15.9843C1.13652 15.9809 0.757282 15.8219 0.476937 15.5415L0.45484 15.5636C0.740979 15.8497 1.12806 16.012 1.5327 16.0156L1.53297 15.9843ZM0.476937 15.5415C0.196593 15.2612 0.0375731 14.8819 0.0341281 14.4855L0.00287925 14.4857C0.00639551 14.8904 0.168702 15.2775 0.45484 15.5636L0.476937 15.5415ZM0.0341281 14.4855C0.030683 14.089 0.183088 13.7071 0.458518 13.4219L0.436041 13.4002C0.154918 13.6913 -0.000637012 14.0811 0.00287925 14.4857L0.0341281 14.4855ZM0.458328 13.4221L5.86015 8.02027L5.83806 7.99817L0.436231 13.4L0.458328 13.4221ZM5.86015 7.99817L0.458328 2.59635L0.436231 2.61845L5.83806 8.02027L5.86015 7.99817ZM0.45833 2.59635C0.174866 2.3128 0.015625 1.92828 0.015625 1.52734H-0.015625C-0.015625 1.93656 0.146907 2.32904 0.436229 2.61845L0.45833 2.59635ZM0.015625 1.52734C0.015625 1.1264 0.174866 0.741876 0.45833 0.458326L0.436229 0.436233C0.146907 0.725642 -0.015625 1.11811 -0.015625 1.52734H0.015625Z" fill="white" mask="url(#path-1-inside-1_45_1648)"/>
</svg>
