<svg width="20" height="20" viewBox="0 0 20 20" fill="none" xmlns="http://www.w3.org/2000/svg">
<path fill-rule="evenodd" clip-rule="evenodd" d="M4.09572 9.99966C4.09572 9.35013 4.20353 8.72732 4.39619 8.14326L1.02589 5.56968C0.369021 6.90327 -0.000976562 8.40607 -0.000976562 9.99966C-0.000976562 11.592 0.368709 13.0937 1.02449 14.4265L4.39291 11.8479C4.20213 11.2665 4.09572 10.6461 4.09572 9.99966Z" fill="#FBBC05"/>
<path fill-rule="evenodd" clip-rule="evenodd" d="M10.2246 4.09096C11.6357 4.09096 12.9102 4.59096 13.9116 5.40908L16.8247 2.50003C15.0496 0.954572 12.7736 4.57764e-05 10.2246 4.57764e-05C6.26712 4.57764e-05 2.86589 2.26316 1.2373 5.57001L4.60744 8.14359C5.384 5.78642 7.59758 4.09096 10.2246 4.09096Z" fill="#EA4335"/>
<path fill-rule="evenodd" clip-rule="evenodd" d="M10.2246 15.9092C7.59774 15.9092 5.38416 14.2137 4.6076 11.8565L1.2373 14.4296C2.86589 17.737 6.26712 20.0001 10.2246 20.0001C12.6671 20.0001 14.9991 19.1327 16.7492 17.5078L13.5502 15.0346C12.6476 15.6032 11.5108 15.9092 10.2246 15.9092Z" fill="#34A853"/>
<path fill-rule="evenodd" clip-rule="evenodd" d="M19.7844 9.99954C19.7844 9.40861 19.6933 8.7722 19.5568 8.18143H10.2256V12.045H15.5968C15.3282 13.3623 14.5973 14.375 13.5512 15.034L16.7502 17.5072C18.5887 15.8009 19.7844 13.2591 19.7844 9.99954Z" fill="#4285F4"/>
</svg>
