<svg width="18" height="13" viewBox="0 0 18 13" fill="none" xmlns="http://www.w3.org/2000/svg">
<path d="M8.75 1.44444C12.6055 1.44444 15.0394 5.05519 15.859 6.5C15.038 7.94733 12.6046 11.5556 8.75 11.5556C4.89508 11.5556 2.46148 7.96575 1.64117 6.5269C2.46094 5.07379 4.89508 1.44444 8.75 1.44444ZM8.75 0C2.91667 0 0 6.52997 0 6.52997C0 6.52997 2.91667 13 8.75 13C14.5833 13 17.5 6.5 17.5 6.5C17.5 6.5 14.5833 0 8.75 0Z" fill="white" fill-opacity="0.7"/>
<path d="M8.74675 5.05724C9.55083 5.05724 10.2051 5.70525 10.2051 6.50168C10.2051 7.29811 9.55083 7.94613 8.74675 7.94613C7.94266 7.94613 7.28841 7.29811 7.28841 6.50168C7.28841 5.70525 7.94266 5.05724 8.74675 5.05724ZM8.74675 3.61279C7.13602 3.61279 5.83008 4.90629 5.83008 6.50168C5.83008 8.09725 7.13602 9.39057 8.74675 9.39057C10.3577 9.39057 11.6634 8.09725 11.6634 6.50168C11.6634 4.90629 10.3577 3.61279 8.74675 3.61279Z" fill="white" fill-opacity="0.7"/>
</svg>
