<svg width="197" height="37" viewBox="0 0 197 37" fill="none" xmlns="http://www.w3.org/2000/svg">
<rect width="37" height="37" rx="8" fill="white"/>
<path d="M19.6308 13.277C19.6308 14.095 20.2464 14.7829 21.0398 14.7829H23.7066L18.6218 20.2757L14.7865 16.1326C14.235 15.537 13.3329 15.537 12.7814 16.1326L6.73648 22.6625C6.19324 23.2494 6.19324 24.1962 6.73648 24.7831C7.28789 25.3787 8.19002 25.3787 8.74145 24.7831C8.74146 24.7831 8.74148 24.7831 8.7415 24.7831L13.7858 19.338L17.6174 23.4771C18.1688 24.0727 19.071 24.0727 19.6224 23.4771C19.6224 23.4771 19.6224 23.4771 19.6224 23.4771L25.6758 16.942V19.8069C25.6758 20.6249 26.2913 21.3129 27.0848 21.3129C27.8782 21.3129 28.4938 20.6249 28.4938 19.8069V13.277C28.4938 12.4589 27.8782 11.771 27.0848 11.771H21.0398C20.2464 11.771 19.6308 12.4589 19.6308 13.277Z" fill="url(#paint0_linear_45_3552)" stroke="url(#paint1_linear_45_3552)" stroke-width="0.4"/>
<path d="M49 12.5349V9.11936H64.6392V12.5349H58.8094V28.713H54.8298V12.5349H49Z" fill="white"/>
<path d="M67.0094 28.713V14.0178H70.9704V28.713H67.0094ZM68.9992 12.1235C68.4103 12.1235 67.9051 11.9226 67.4836 11.5207C67.0683 11.1125 66.8607 10.6246 66.8607 10.0569C66.8607 9.49567 67.0683 9.01412 67.4836 8.6123C67.9051 8.2041 68.4103 8 68.9992 8C69.5881 8 70.0902 8.2041 70.5055 8.6123C70.927 9.01412 71.1377 9.49567 71.1377 10.0569C71.1377 10.6246 70.927 11.1125 70.5055 11.5207C70.0902 11.9226 69.5881 12.1235 68.9992 12.1235Z" fill="white"/>
<path d="M80.4652 29C79.0023 29 77.744 28.6811 76.6902 28.0433C75.6426 27.3991 74.8368 26.5062 74.2727 25.3645C73.7148 24.2228 73.4359 22.9089 73.4359 21.4228C73.4359 19.9175 73.7179 18.5973 74.282 17.462C74.8523 16.3203 75.6612 15.4305 76.7088 14.7927C77.7564 14.1485 79.0023 13.8264 80.4466 13.8264C81.6925 13.8264 82.7835 14.0592 83.7195 14.5248C84.6555 14.9904 85.3962 15.6442 85.9417 16.4861C86.4872 17.328 86.7878 18.3166 86.8436 19.4519H83.1058C83.0004 18.7185 82.7215 18.1285 82.269 17.682C81.8227 17.2292 81.2369 17.0027 80.5117 17.0027C79.898 17.0027 79.3618 17.1749 78.9031 17.5194C78.4506 17.8574 78.0973 18.3517 77.8431 19.0023C77.589 19.6528 77.4619 20.4405 77.4619 21.3654C77.4619 22.303 77.5859 23.1002 77.8338 23.7572C78.088 24.4141 78.4444 24.9148 78.9031 25.2592C79.3618 25.6036 79.898 25.7759 80.5117 25.7759C80.9642 25.7759 81.3702 25.6802 81.7297 25.4888C82.0954 25.2975 82.3961 25.02 82.6316 24.6565C82.8733 24.2866 83.0314 23.8433 83.1058 23.3267H86.8436C86.7816 24.4492 86.4841 25.4378 85.951 26.2925C85.4241 27.1408 84.6958 27.8041 83.766 28.2825C82.8362 28.7608 81.7359 29 80.4652 29Z" fill="white"/>
<path d="M92.8377 24.4843L92.847 19.5954H93.4235L97.9981 14.0178H102.545L96.3988 21.4036H95.4597L92.8377 24.4843ZM89.2487 28.713V9.11936H93.2096V28.713H89.2487ZM98.1747 28.713L93.9721 22.3125L96.6127 19.4328L102.814 28.713H98.1747Z" fill="white"/>
<path d="M112.056 9.11936H116.035V22.7813C116.035 24.0442 115.76 25.1412 115.208 26.0724C114.662 27.0036 113.903 27.7212 112.93 28.2251C111.957 28.7289 110.825 28.9809 109.536 28.9809C108.389 28.9809 107.348 28.7736 106.412 28.359C105.482 27.938 104.745 27.3002 104.199 26.4456C103.654 25.5845 103.384 24.5034 103.39 23.2023H107.398C107.41 23.7189 107.512 24.1622 107.704 24.5321C107.903 24.8957 108.172 25.1763 108.513 25.374C108.86 25.5654 109.27 25.661 109.741 25.661C110.237 25.661 110.655 25.5526 110.996 25.3358C111.343 25.1125 111.606 24.7872 111.786 24.3599C111.966 23.9326 112.056 23.4064 112.056 22.7813V9.11936Z" fill="white"/>
<path d="M125.612 29C124.167 29 122.918 28.6843 121.864 28.0528C120.817 27.415 120.008 26.5285 119.438 25.3932C118.867 24.2515 118.582 22.928 118.582 21.4228C118.582 19.9048 118.867 18.5781 119.438 17.4428C120.008 16.3011 120.817 15.4146 121.864 14.7831C122.918 14.1453 124.167 13.8264 125.612 13.8264C127.056 13.8264 128.302 14.1453 129.349 14.7831C130.403 15.4146 131.215 16.3011 131.785 17.4428C132.356 18.5781 132.641 19.9048 132.641 21.4228C132.641 22.928 132.356 24.2515 131.785 25.3932C131.215 26.5285 130.403 27.415 129.349 28.0528C128.302 28.6843 127.056 29 125.612 29ZM125.63 25.8428C126.287 25.8428 126.836 25.6515 127.276 25.2688C127.716 24.8797 128.048 24.3503 128.271 23.6806C128.5 23.0109 128.615 22.2487 128.615 21.3941C128.615 20.5394 128.5 19.7772 128.271 19.1075C128.048 18.4378 127.716 17.9084 127.276 17.5194C126.836 17.1303 126.287 16.9358 125.63 16.9358C124.967 16.9358 124.409 17.1303 123.957 17.5194C123.51 17.9084 123.172 18.4378 122.943 19.1075C122.72 19.7772 122.608 20.5394 122.608 21.3941C122.608 22.2487 122.72 23.0109 122.943 23.6806C123.172 24.3503 123.51 24.8797 123.957 25.2688C124.409 25.6515 124.967 25.8428 125.63 25.8428Z" fill="white"/>
<path d="M144.244 22.456V14.0178H148.205V28.713H144.402V26.0437H144.253C143.931 26.9048 143.395 27.5968 142.645 28.1198C141.901 28.6428 140.993 28.9043 139.92 28.9043C138.966 28.9043 138.126 28.6811 137.401 28.2346C136.675 27.7882 136.108 27.1535 135.699 26.3308C135.296 25.508 135.092 24.5226 135.085 23.3745V14.0178H139.046V22.6474C139.053 23.5148 139.279 24.2005 139.725 24.7043C140.171 25.2082 140.77 25.4601 141.52 25.4601C141.997 25.4601 142.443 25.3485 142.859 25.1253C143.274 24.8957 143.609 24.5576 143.863 24.1112C144.123 23.6647 144.25 23.113 144.244 22.456Z" fill="white"/>
<path d="M151.242 28.713V14.0178H155.082V16.5818H155.231C155.491 15.6697 155.928 14.9809 156.542 14.5153C157.156 14.0433 157.862 13.8073 158.662 13.8073C158.86 13.8073 159.074 13.82 159.304 13.8456C159.533 13.8711 159.734 13.9062 159.908 13.9508V17.5672C159.722 17.5098 159.465 17.4588 159.136 17.4141C158.808 17.3695 158.507 17.3472 158.234 17.3472C157.652 17.3472 157.131 17.4779 156.672 17.7394C156.22 17.9945 155.86 18.3517 155.594 18.8109C155.333 19.2702 155.203 19.7995 155.203 20.3991V28.713H151.242Z" fill="white"/>
<path d="M165.786 20.2173V28.713H161.825V14.0178H165.6V16.6105H165.767C166.083 15.7558 166.613 15.0797 167.357 14.5822C168.101 14.0784 169.003 13.8264 170.063 13.8264C171.055 13.8264 171.919 14.0497 172.657 14.4961C173.395 14.9426 173.968 15.5804 174.377 16.4096C174.786 17.2323 174.991 18.2146 174.991 19.3563V28.713H171.03V20.0834C171.036 19.1841 170.813 18.4825 170.36 17.9786C169.908 17.4683 169.285 17.2132 168.492 17.2132C167.959 17.2132 167.487 17.3312 167.078 17.5672C166.675 17.8032 166.359 18.1476 166.13 18.6005C165.907 19.0469 165.792 19.5859 165.786 20.2173Z" fill="white"/>
<path d="M182.054 28.9904C181.143 28.9904 180.331 28.8278 179.618 28.5025C178.905 28.1708 178.341 27.6829 177.926 27.0387C177.517 26.3882 177.312 25.5781 177.312 24.6087C177.312 23.7923 177.458 23.1066 177.749 22.5517C178.041 21.9968 178.437 21.5503 178.939 21.2123C179.442 20.8743 180.012 20.6191 180.65 20.4469C181.295 20.2747 181.971 20.1535 182.677 20.0834C183.508 19.9941 184.177 19.9112 184.686 19.8346C185.194 19.7517 185.563 19.6305 185.792 19.4711C186.021 19.3116 186.136 19.0756 186.136 18.7631V18.7057C186.136 18.0998 185.95 17.631 185.578 17.2993C185.212 16.9677 184.692 16.8018 184.016 16.8018C183.303 16.8018 182.736 16.9645 182.315 17.2898C181.893 17.6087 181.614 18.0105 181.478 18.4952L177.814 18.1891C178 17.2961 178.366 16.5244 178.912 15.8738C179.457 15.2169 180.161 14.713 181.022 14.3622C181.89 14.005 182.894 13.8264 184.035 13.8264C184.828 13.8264 185.587 13.9221 186.313 14.1134C187.044 14.3048 187.692 14.6014 188.256 15.0032C188.826 15.405 189.276 15.9216 189.604 16.5531C189.933 17.1781 190.097 17.9276 190.097 18.8014V28.713H186.341V26.6752H186.229C186 27.1344 185.693 27.5394 185.309 27.8902C184.924 28.2346 184.462 28.5057 183.923 28.7034C183.384 28.8948 182.761 28.9904 182.054 28.9904ZM183.189 26.1777C183.771 26.1777 184.286 26.0597 184.732 25.8237C185.178 25.5813 185.529 25.256 185.783 24.8478C186.037 24.4396 186.164 23.9772 186.164 23.4606V21.9011C186.04 21.9841 185.87 22.0606 185.653 22.1308C185.442 22.1945 185.203 22.2551 184.937 22.3125C184.67 22.3636 184.404 22.4114 184.137 22.456C183.87 22.4943 183.629 22.5294 183.412 22.5613C182.947 22.6314 182.541 22.7431 182.194 22.8961C181.847 23.0492 181.577 23.2565 181.385 23.518C181.193 23.7731 181.097 24.092 181.097 24.4747C181.097 25.0296 181.292 25.4538 181.682 25.7472C182.079 26.0342 182.581 26.1777 183.189 26.1777Z" fill="white"/>
<path d="M197 9.11936V28.713H193.039V9.11936H197Z" fill="white"/>
<defs>
<linearGradient id="paint0_linear_45_3552" x1="7.12264" y1="25.0298" x2="29.3509" y2="14.126" gradientUnits="userSpaceOnUse">
<stop stop-color="#85FFC4"/>
<stop offset="0.411458" stop-color="#5CC6FF"/>
<stop offset="0.854167" stop-color="#BC85FF"/>
</linearGradient>
<linearGradient id="paint1_linear_45_3552" x1="7.12264" y1="25.0298" x2="29.3509" y2="14.126" gradientUnits="userSpaceOnUse">
<stop stop-color="#85FFC4"/>
<stop offset="0.411458" stop-color="#5CC6FF"/>
<stop offset="0.854167" stop-color="#BC85FF"/>
</linearGradient>
</defs>
</svg>
