<svg width="13" height="12" viewBox="0 0 13 12" fill="none" xmlns="http://www.w3.org/2000/svg">
<path d="M7.07869 11.4684C6.99596 11.4688 6.91398 11.4527 6.83746 11.421C6.76077 11.3891 6.69111 11.3423 6.63245 11.2832C6.57361 11.224 6.52699 11.1535 6.4952 11.0761C6.46341 10.9986 6.44706 10.9155 6.44706 10.8317C6.44706 10.7478 6.46341 10.6648 6.4952 10.5873C6.52697 10.5099 6.57356 10.4395 6.63236 10.3802C6.63239 10.3802 6.63242 10.3802 6.63245 10.3802L10.3223 6.63784H1.1831C1.03147 6.63784 0.890654 6.56541 0.790027 6.44465C0.689842 6.32442 0.635855 6.16468 0.635855 6.0011C0.635855 5.83753 0.689842 5.67779 0.790027 5.55756C0.890654 5.4368 1.03147 5.36437 1.1831 5.36437H10.3223L6.6322 1.62181L6.63216 1.62177C6.57367 1.56237 6.52735 1.49194 6.49577 1.41453C6.4642 1.33712 6.44796 1.25421 6.44796 1.17052C6.44796 1.08683 6.4642 1.00392 6.49577 0.926511C6.52735 0.849104 6.57367 0.778671 6.63216 0.719274C6.69066 0.659872 6.76019 0.61267 6.83682 0.580437C6.91346 0.548203 6.99565 0.531592 7.07869 0.531592C7.16174 0.531592 7.24393 0.548203 7.32057 0.580437C7.3972 0.61267 7.46673 0.659872 7.52523 0.719273L12.1709 5.43674C12.2226 5.46813 12.2696 5.50892 12.3102 5.55756C12.3746 5.63493 12.42 5.72867 12.4441 5.82926C12.4596 5.8851 12.4674 5.94291 12.4674 6.00111C12.4674 6.05931 12.4596 6.11712 12.4441 6.17296C12.42 6.27355 12.3746 6.36728 12.3102 6.44465C12.2696 6.49328 12.2226 6.53408 12.1709 6.56546L7.52523 11.2829L7.52494 11.2832C7.46628 11.3423 7.39662 11.3891 7.31993 11.421C7.24341 11.4527 7.16143 11.4688 7.07869 11.4684ZM7.07869 11.4684C7.07889 11.4684 7.07909 11.4684 7.07928 11.4684L7.07869 11.3684L7.07811 11.4684C7.0783 11.4684 7.0785 11.4684 7.07869 11.4684Z" fill="white" stroke="white" stroke-width="0.2"/>
</svg>
