<svg width="18" height="18" viewBox="0 0 18 18" fill="none" xmlns="http://www.w3.org/2000/svg">
<path d="M11.2549 0H6.64036L6.111 2.64845C5.6727 2.84487 5.25593 3.08615 4.86736 3.36845L2.30645 2.502L0 6.498L2.02991 8.28164C1.98089 8.75929 1.98089 9.24071 2.02991 9.71836L0 11.502L2.30727 15.498L4.86736 14.6324C5.25355 14.9122 5.66918 15.1544 6.111 15.3515L6.64036 18H11.2549L11.7843 15.3515C12.2226 15.1551 12.6393 14.9138 13.0279 14.6315L15.5888 15.498L17.8961 11.502L15.8654 9.71836C15.9144 9.24071 15.9144 8.75929 15.8654 8.28164L17.8953 6.498L15.588 2.502L13.0287 3.36764C12.6401 3.08562 12.2234 2.84461 11.7851 2.64845L11.2549 0ZM8.94764 12.2727C8.07965 12.2727 7.24722 11.9279 6.63347 11.3142C6.01971 10.7004 5.67491 9.86798 5.67491 9C5.67491 8.13202 6.01971 7.29959 6.63347 6.68583C7.24722 6.07208 8.07965 5.72727 8.94764 5.72727C9.81562 5.72727 10.648 6.07208 11.2618 6.68583C11.8756 7.29959 12.2204 8.13202 12.2204 9C12.2204 9.86798 11.8756 10.7004 11.2618 11.3142C10.648 11.9279 9.81562 12.2727 8.94764 12.2727Z" fill="white"/>
</svg>
