<svg width="18" height="18" viewBox="0 0 18 18" fill="none" xmlns="http://www.w3.org/2000/svg">
<path d="M17.9764 5.61965C17.9772 5.81755 17.9257 6.01213 17.8271 6.1837C17.7285 6.35528 17.5863 6.49775 17.4149 6.5967L9.55363 11.0889C9.3829 11.1874 9.18924 11.2393 8.99211 11.2393C8.79497 11.2393 8.60131 11.1874 8.43059 11.0889L0.569322 6.5967C0.396489 6.49875 0.252731 6.35671 0.152714 6.18506C0.0526966 6.01342 0 5.81831 0 5.61965C0 5.421 0.0526966 5.22589 0.152714 5.05425C0.252731 4.8826 0.396489 4.74056 0.569322 4.64261L8.43059 0.150459C8.60131 0.0518916 8.79497 0 8.99211 0C9.18924 0 9.3829 0.0518916 9.55363 0.150459L17.4149 4.64261C17.5863 4.74156 17.7285 4.88403 17.8271 5.0556C17.9257 5.22718 17.9772 5.42176 17.9764 5.61965Z" fill="url(#paint0_linear_45_3480)"/>
<path d="M17.4149 11.3808L15.4945 10.2578L10.6654 13.0205C10.1574 13.3175 9.58052 13.4762 8.99211 13.4809C8.40953 13.4811 7.83686 13.3302 7.33001 13.0429L2.48972 10.2803L0.569322 11.4033C0.396489 11.5013 0.252731 11.6433 0.152714 11.8149C0.0526966 11.9866 0 12.1817 0 12.3803C0 12.579 0.0526966 12.7741 0.152714 12.9458C0.252731 13.1174 0.396489 13.2594 0.569322 13.3574L8.43059 17.8495C8.60131 17.9481 8.79497 18 8.99211 18C9.18924 18 9.3829 17.9481 9.55363 17.8495L17.4149 13.3574C17.5877 13.2594 17.7315 13.1174 17.8315 12.9458C17.9315 12.7741 17.9842 12.579 17.9842 12.3803C17.9842 12.1817 17.9315 11.9866 17.8315 11.8149C17.7315 11.6433 17.5877 11.5013 17.4149 11.4033V11.3808Z" fill="url(#paint1_linear_45_3480)"/>
<defs>
<linearGradient id="paint0_linear_45_3480" x1="0.490478" y1="18" x2="21.4637" y2="11.8325" gradientUnits="userSpaceOnUse">
<stop stop-color="#85FFC4"/>
<stop offset="0.411458" stop-color="#5CC6FF"/>
<stop offset="0.854167" stop-color="#BC85FF"/>
</linearGradient>
<linearGradient id="paint1_linear_45_3480" x1="0.490478" y1="18" x2="21.4637" y2="11.8325" gradientUnits="userSpaceOnUse">
<stop stop-color="#85FFC4"/>
<stop offset="0.411458" stop-color="#5CC6FF"/>
<stop offset="0.854167" stop-color="#BC85FF"/>
</linearGradient>
</defs>
</svg>
